<mxfile host="app.diagrams.net" agent="Mozilla/5.0 (Windows NT 10.0; Win64; x64) AppleWebKit/537.36 (KHTML, like Gecko) Chrome/136.0.0.0 Safari/537.36" version="27.1.1" pages="4">
  <diagram name="DB" id="RP7NdtQAlVJzLvOLPgYq">
    <mxGraphModel dx="1126" dy="743" grid="1" gridSize="10" guides="1" tooltips="1" connect="1" arrows="1" fold="1" page="1" pageScale="1" pageWidth="850" pageHeight="1100" math="0" shadow="0">
      <root>
        <mxCell id="0" />
        <mxCell id="1" parent="0" />
        <mxCell id="9Vz1PJ25cp8Tzlcrsaui-2" value="" style="group;movable=1;resizable=1;rotatable=1;deletable=1;editable=1;locked=0;connectable=1;fontSize=14;" parent="1" vertex="1" connectable="0">
          <mxGeometry x="60" y="74.43" width="190" height="114.57" as="geometry" />
        </mxCell>
        <mxCell id="9Vz1PJ25cp8Tzlcrsaui-3" value="&lt;div&gt;&amp;nbsp; &amp;nbsp;id &amp;lt;&amp;lt;PK&amp;gt;&amp;gt;&lt;/div&gt;&lt;div&gt;&amp;nbsp; &amp;nbsp;name&lt;/div&gt;&lt;div&gt;&amp;nbsp; &amp;nbsp;ticker&lt;/div&gt;&lt;div&gt;&lt;br&gt;&lt;/div&gt;" style="whiteSpace=wrap;html=1;verticalAlign=top;align=left;movable=1;resizable=1;rotatable=1;deletable=1;editable=1;locked=0;connectable=1;fontSize=14;" parent="9Vz1PJ25cp8Tzlcrsaui-2" vertex="1">
          <mxGeometry y="38.19" width="190" height="76.38" as="geometry" />
        </mxCell>
        <mxCell id="9Vz1PJ25cp8Tzlcrsaui-4" value="&lt;span&gt;crypto_coin&lt;/span&gt;" style="rounded=0;whiteSpace=wrap;html=1;movable=1;resizable=1;rotatable=1;deletable=1;editable=1;locked=0;connectable=1;fontSize=16;fontStyle=1" parent="9Vz1PJ25cp8Tzlcrsaui-2" vertex="1">
          <mxGeometry width="190" height="38.19" as="geometry" />
        </mxCell>
        <mxCell id="9Vz1PJ25cp8Tzlcrsaui-5" style="edgeStyle=orthogonalEdgeStyle;rounded=0;orthogonalLoop=1;jettySize=auto;html=1;exitX=0.5;exitY=1;exitDx=0;exitDy=0;" parent="9Vz1PJ25cp8Tzlcrsaui-2" source="9Vz1PJ25cp8Tzlcrsaui-3" target="9Vz1PJ25cp8Tzlcrsaui-3" edge="1">
          <mxGeometry relative="1" as="geometry" />
        </mxCell>
        <mxCell id="9Vz1PJ25cp8Tzlcrsaui-6" value="" style="group;movable=1;resizable=1;rotatable=1;deletable=1;editable=1;locked=0;connectable=1;" parent="1" vertex="1" connectable="0">
          <mxGeometry x="600" y="80" width="190" height="90" as="geometry" />
        </mxCell>
        <mxCell id="9Vz1PJ25cp8Tzlcrsaui-7" value="&lt;div&gt;Currency_ID &amp;lt;&amp;lt;PK&amp;gt;&amp;gt;&lt;/div&gt;&lt;div&gt;Currency_name&lt;/div&gt;" style="whiteSpace=wrap;html=1;verticalAlign=top;align=left;movable=1;resizable=1;rotatable=1;deletable=1;editable=1;locked=0;connectable=1;" parent="9Vz1PJ25cp8Tzlcrsaui-6" vertex="1">
          <mxGeometry y="38.57142857142858" width="190" height="51.42857142857143" as="geometry" />
        </mxCell>
        <mxCell id="9Vz1PJ25cp8Tzlcrsaui-8" value="&lt;b&gt;Currency&lt;/b&gt;" style="rounded=0;whiteSpace=wrap;html=1;movable=1;resizable=1;rotatable=1;deletable=1;editable=1;locked=0;connectable=1;" parent="9Vz1PJ25cp8Tzlcrsaui-6" vertex="1">
          <mxGeometry width="190" height="38.57142857142858" as="geometry" />
        </mxCell>
        <mxCell id="9Vz1PJ25cp8Tzlcrsaui-9" style="edgeStyle=orthogonalEdgeStyle;rounded=0;orthogonalLoop=1;jettySize=auto;html=1;exitX=0.5;exitY=1;exitDx=0;exitDy=0;" parent="9Vz1PJ25cp8Tzlcrsaui-6" source="9Vz1PJ25cp8Tzlcrsaui-7" target="9Vz1PJ25cp8Tzlcrsaui-7" edge="1">
          <mxGeometry relative="1" as="geometry" />
        </mxCell>
        <mxCell id="9Vz1PJ25cp8Tzlcrsaui-26" style="edgeStyle=orthogonalEdgeStyle;rounded=0;orthogonalLoop=1;jettySize=auto;html=1;entryX=0;entryY=0.25;entryDx=0;entryDy=0;strokeWidth=2;startArrow=ERzeroToMany;startFill=0;endArrow=ERone;endFill=0;" parent="1" source="9Vz1PJ25cp8Tzlcrsaui-16" target="9Vz1PJ25cp8Tzlcrsaui-7" edge="1">
          <mxGeometry relative="1" as="geometry" />
        </mxCell>
        <mxCell id="9Vz1PJ25cp8Tzlcrsaui-14" value="" style="group;movable=1;resizable=1;rotatable=1;deletable=1;editable=1;locked=0;connectable=1;fontSize=15;" parent="1" vertex="1" connectable="0">
          <mxGeometry x="320" y="109" width="210" height="370" as="geometry" />
        </mxCell>
        <mxCell id="9Vz1PJ25cp8Tzlcrsaui-15" value="&lt;div&gt;&amp;nbsp; &amp;nbsp;id &amp;lt;&amp;lt;PK&amp;gt;&amp;gt;&lt;/div&gt;&lt;div&gt;&amp;nbsp; &amp;nbsp;crypto_ID &amp;lt;&amp;lt;FK&amp;gt;&amp;gt;&lt;/div&gt;&lt;div&gt;&amp;nbsp; &amp;nbsp;currency_ID &amp;lt;&amp;lt;FK&amp;gt;&amp;gt;&lt;/div&gt;&lt;div&gt;&lt;span style=&quot;background-color: transparent; color: light-dark(rgb(0, 0, 0), rgb(255, 255, 255));&quot;&gt;&amp;nbsp; &amp;nbsp;interval_ID &amp;lt;&amp;lt;FK&amp;gt;&amp;gt;&lt;/span&gt;&lt;/div&gt;&lt;div&gt;&amp;nbsp; &amp;nbsp;open_price&lt;/div&gt;&lt;div&gt;&amp;nbsp; &amp;nbsp;close_price&lt;/div&gt;&lt;div&gt;&amp;nbsp; &amp;nbsp;high_price&lt;/div&gt;&lt;div&gt;&amp;nbsp; &amp;nbsp;low_price&lt;/div&gt;&lt;div&gt;&amp;nbsp; &amp;nbsp;volume&lt;/div&gt;&lt;div&gt;&amp;nbsp; &amp;nbsp;open_time&lt;/div&gt;&lt;div&gt;&amp;nbsp; &amp;nbsp;close_time&lt;/div&gt;&lt;div&gt;&lt;u&gt;&lt;br&gt;&lt;/u&gt;&lt;/div&gt;&lt;div&gt;&lt;u&gt;Number of trades&lt;/u&gt;&lt;/div&gt;&lt;div&gt;&lt;u&gt;Quote Asset Volume&lt;/u&gt;&lt;/div&gt;&lt;div&gt;&lt;u&gt;Taker buyer based asset volume&lt;/u&gt;&lt;/div&gt;&lt;div&gt;&lt;u&gt;Taker buyer quote asset volume&lt;/u&gt;&lt;/div&gt;&lt;div&gt;&lt;div&gt;&lt;u&gt;Time_stamp&lt;/u&gt;&lt;/div&gt;&lt;/div&gt;&lt;div&gt;&lt;br&gt;&lt;/div&gt;" style="whiteSpace=wrap;html=1;verticalAlign=top;align=left;movable=1;resizable=1;rotatable=1;deletable=1;editable=1;locked=0;connectable=1;fontSize=14;" parent="9Vz1PJ25cp8Tzlcrsaui-14" vertex="1">
          <mxGeometry y="45.33060606060606" width="210" height="324.6693939393939" as="geometry" />
        </mxCell>
        <mxCell id="9Vz1PJ25cp8Tzlcrsaui-16" value="&lt;b&gt;crypto_coin_candle&lt;/b&gt;" style="rounded=0;whiteSpace=wrap;html=1;movable=1;resizable=1;rotatable=1;deletable=1;editable=1;locked=0;connectable=1;fontSize=16;" parent="9Vz1PJ25cp8Tzlcrsaui-14" vertex="1">
          <mxGeometry width="210" height="45.33060606060606" as="geometry" />
        </mxCell>
        <mxCell id="9Vz1PJ25cp8Tzlcrsaui-17" style="edgeStyle=orthogonalEdgeStyle;rounded=0;orthogonalLoop=1;jettySize=auto;html=1;exitX=0.5;exitY=1;exitDx=0;exitDy=0;" parent="9Vz1PJ25cp8Tzlcrsaui-14" source="9Vz1PJ25cp8Tzlcrsaui-15" target="9Vz1PJ25cp8Tzlcrsaui-15" edge="1">
          <mxGeometry relative="1" as="geometry" />
        </mxCell>
        <mxCell id="9Vz1PJ25cp8Tzlcrsaui-19" value="" style="group;movable=1;resizable=1;rotatable=1;deletable=1;editable=1;locked=0;connectable=1;" parent="1" vertex="1" connectable="0">
          <mxGeometry x="600" y="266" width="190" height="97" as="geometry" />
        </mxCell>
        <mxCell id="9Vz1PJ25cp8Tzlcrsaui-20" value="&lt;div&gt;&amp;nbsp; &amp;nbsp;id &amp;lt;&amp;lt;PK&amp;gt;&amp;gt;&lt;/div&gt;&lt;div&gt;&amp;nbsp; &amp;nbsp;name_long&lt;/div&gt;&lt;div&gt;&amp;nbsp; &amp;nbsp;name_short&lt;/div&gt;" style="whiteSpace=wrap;html=1;verticalAlign=top;align=left;movable=1;resizable=1;rotatable=1;deletable=1;editable=1;locked=0;connectable=1;fontSize=14;" parent="9Vz1PJ25cp8Tzlcrsaui-19" vertex="1">
          <mxGeometry y="36.375" width="190" height="60.62499999999999" as="geometry" />
        </mxCell>
        <mxCell id="9Vz1PJ25cp8Tzlcrsaui-21" value="&lt;b&gt;interval&lt;/b&gt;" style="rounded=0;whiteSpace=wrap;html=1;movable=1;resizable=1;rotatable=1;deletable=1;editable=1;locked=0;connectable=1;fontSize=16;" parent="9Vz1PJ25cp8Tzlcrsaui-19" vertex="1">
          <mxGeometry width="190" height="36.375" as="geometry" />
        </mxCell>
        <mxCell id="9Vz1PJ25cp8Tzlcrsaui-22" style="edgeStyle=orthogonalEdgeStyle;rounded=0;orthogonalLoop=1;jettySize=auto;html=1;exitX=0.5;exitY=1;exitDx=0;exitDy=0;" parent="9Vz1PJ25cp8Tzlcrsaui-19" source="9Vz1PJ25cp8Tzlcrsaui-20" target="9Vz1PJ25cp8Tzlcrsaui-20" edge="1">
          <mxGeometry relative="1" as="geometry" />
        </mxCell>
        <mxCell id="9Vz1PJ25cp8Tzlcrsaui-24" style="edgeStyle=orthogonalEdgeStyle;rounded=0;orthogonalLoop=1;jettySize=auto;html=1;endArrow=ERzeroToMany;endFill=0;startArrow=ERone;startFill=0;exitX=1;exitY=0.5;exitDx=0;exitDy=0;strokeWidth=2;" parent="1" source="9Vz1PJ25cp8Tzlcrsaui-2" target="9Vz1PJ25cp8Tzlcrsaui-16" edge="1">
          <mxGeometry relative="1" as="geometry">
            <mxPoint x="290" y="180" as="targetPoint" />
          </mxGeometry>
        </mxCell>
        <mxCell id="9Vz1PJ25cp8Tzlcrsaui-27" style="edgeStyle=orthogonalEdgeStyle;rounded=0;orthogonalLoop=1;jettySize=auto;html=1;entryX=0;entryY=0.75;entryDx=0;entryDy=0;exitX=1;exitY=0.5;exitDx=0;exitDy=0;endArrow=ERone;endFill=0;startArrow=ERzeroToMany;startFill=0;strokeWidth=2;" parent="1" source="9Vz1PJ25cp8Tzlcrsaui-14" target="9Vz1PJ25cp8Tzlcrsaui-21" edge="1">
          <mxGeometry relative="1" as="geometry" />
        </mxCell>
        <mxCell id="AAKEPCcfk7k66lpwhfkh-4" value="" style="group;movable=1;resizable=1;rotatable=1;deletable=1;editable=1;locked=0;connectable=1;" parent="1" vertex="1" connectable="0">
          <mxGeometry x="60" y="440" width="190" height="80" as="geometry" />
        </mxCell>
        <mxCell id="AAKEPCcfk7k66lpwhfkh-5" value="&lt;div&gt;&amp;nbsp; &amp;nbsp;id &amp;lt;&amp;lt;PK&amp;gt;&amp;gt;&lt;/div&gt;&lt;div&gt;&amp;nbsp; &amp;nbsp;updated_at&lt;/div&gt;" style="whiteSpace=wrap;html=1;verticalAlign=top;align=left;movable=1;resizable=1;rotatable=1;deletable=1;editable=1;locked=0;connectable=1;fontSize=14;" parent="AAKEPCcfk7k66lpwhfkh-4" vertex="1">
          <mxGeometry y="34.285714285714285" width="190" height="45.71428571428571" as="geometry" />
        </mxCell>
        <mxCell id="AAKEPCcfk7k66lpwhfkh-6" value="&lt;b&gt;historical_data&lt;/b&gt;" style="rounded=0;whiteSpace=wrap;html=1;movable=1;resizable=1;rotatable=1;deletable=1;editable=1;locked=0;connectable=1;fontSize=16;" parent="AAKEPCcfk7k66lpwhfkh-4" vertex="1">
          <mxGeometry width="190" height="34.285714285714285" as="geometry" />
        </mxCell>
        <mxCell id="AAKEPCcfk7k66lpwhfkh-7" style="edgeStyle=orthogonalEdgeStyle;rounded=0;orthogonalLoop=1;jettySize=auto;html=1;exitX=0.5;exitY=1;exitDx=0;exitDy=0;" parent="AAKEPCcfk7k66lpwhfkh-4" source="AAKEPCcfk7k66lpwhfkh-5" target="AAKEPCcfk7k66lpwhfkh-5" edge="1">
          <mxGeometry relative="1" as="geometry" />
        </mxCell>
      </root>
    </mxGraphModel>
  </diagram>
  <diagram name="Architecture" id="A9OtKfLHgQiF1C4PGYSF">
    <mxGraphModel dx="1126" dy="743" grid="1" gridSize="10" guides="1" tooltips="1" connect="1" arrows="1" fold="1" page="1" pageScale="1" pageWidth="850" pageHeight="1100" math="0" shadow="0">
      <root>
        <mxCell id="3EPOgjo273rAHZ_kySog-0" />
        <mxCell id="3EPOgjo273rAHZ_kySog-1" parent="3EPOgjo273rAHZ_kySog-0" />
        <mxCell id="cmCbDiRk4xD9UXszLm4Y-0" value="opa_api : opa_api" style="swimlane;fontSize=21;startSize=40;" vertex="1" parent="3EPOgjo273rAHZ_kySog-1">
          <mxGeometry x="40" y="40" width="270" height="140" as="geometry" />
        </mxCell>
        <mxCell id="cmCbDiRk4xD9UXszLm4Y-1" value="Port :&lt;span style=&quot;&quot;&gt; &lt;span style=&quot;&quot;&gt;&lt;font style=&quot;font-size: 26px;&quot;&gt;8088&lt;/font&gt;&lt;/span&gt;&lt;/span&gt;" style="text;html=1;align=center;verticalAlign=middle;resizable=0;points=[];autosize=1;strokeColor=none;fillColor=none;fontSize=19;fontStyle=1;flipH=1;labelBackgroundColor=#00FF00;" vertex="1" parent="cmCbDiRk4xD9UXszLm4Y-0">
          <mxGeometry x="70" y="60" width="130" height="40" as="geometry" />
        </mxCell>
        <mxCell id="cmCbDiRk4xD9UXszLm4Y-2" value="opa_db : opa_pg" style="swimlane;fontSize=21;startSize=40;" vertex="1" parent="3EPOgjo273rAHZ_kySog-1">
          <mxGeometry x="40" y="300" width="270" height="160" as="geometry" />
        </mxCell>
        <mxCell id="cmCbDiRk4xD9UXszLm4Y-3" value="Port : &lt;span style=&quot;font-size: 26px;&quot;&gt;5432&lt;/span&gt;" style="text;html=1;align=center;verticalAlign=middle;resizable=0;points=[];autosize=1;strokeColor=none;fillColor=none;fontSize=19;fontStyle=1;labelBackgroundColor=#00FF00;" vertex="1" parent="cmCbDiRk4xD9UXszLm4Y-2">
          <mxGeometry x="70" y="60" width="130" height="40" as="geometry" />
        </mxCell>
        <mxCell id="cmCbDiRk4xD9UXszLm4Y-4" value="pgadmin : opa_pgadmin" style="swimlane;fontSize=21;startSize=40;labelBackgroundColor=default;" vertex="1" parent="3EPOgjo273rAHZ_kySog-1">
          <mxGeometry x="40" y="570" width="270" height="130" as="geometry" />
        </mxCell>
        <mxCell id="cmCbDiRk4xD9UXszLm4Y-5" value="Port : &lt;font style=&quot;font-size: 26px;&quot;&gt;5050&lt;/font&gt;" style="text;html=1;align=center;verticalAlign=middle;resizable=0;points=[];autosize=1;strokeColor=none;fillColor=none;fontSize=19;fontStyle=1;labelBackgroundColor=#00FF00;" vertex="1" parent="cmCbDiRk4xD9UXszLm4Y-4">
          <mxGeometry x="55" y="60" width="130" height="40" as="geometry" />
        </mxCell>
        <mxCell id="cmCbDiRk4xD9UXszLm4Y-6" value="bionance : opa_data_loader" style="swimlane;fontSize=21;startSize=40;" vertex="1" parent="3EPOgjo273rAHZ_kySog-1">
          <mxGeometry x="520" y="568" width="310" height="132" as="geometry" />
        </mxCell>
        <mxCell id="cmCbDiRk4xD9UXszLm4Y-7" value="Script: get_historical_data.py" style="text;html=1;align=center;verticalAlign=middle;resizable=0;points=[];autosize=1;strokeColor=none;fillColor=none;fontSize=18;fontStyle=1" vertex="1" parent="cmCbDiRk4xD9UXszLm4Y-6">
          <mxGeometry x="30" y="62" width="250" height="40" as="geometry" />
        </mxCell>
        <mxCell id="cmCbDiRk4xD9UXszLm4Y-8" value="opa_streamlit : opa_streamlit" style="swimlane;fontSize=21;startSize=40;" vertex="1" parent="3EPOgjo273rAHZ_kySog-1">
          <mxGeometry x="510" y="40" width="320" height="140" as="geometry" />
        </mxCell>
        <mxCell id="cmCbDiRk4xD9UXszLm4Y-9" value="&lt;b&gt;Port : &lt;span style=&quot;&quot;&gt;&lt;font style=&quot;font-size: 26px;&quot;&gt;8090&lt;/font&gt;&lt;/span&gt;&lt;/b&gt;" style="text;html=1;align=center;verticalAlign=middle;resizable=0;points=[];autosize=1;strokeColor=none;fillColor=none;fontSize=19;labelBackgroundColor=#00FF00;" vertex="1" parent="cmCbDiRk4xD9UXszLm4Y-8">
          <mxGeometry x="90" y="60" width="140" height="40" as="geometry" />
        </mxCell>
        <mxCell id="cmCbDiRk4xD9UXszLm4Y-10" value="opa_ml : opa_ml" style="swimlane;fontSize=21;startSize=40;" vertex="1" parent="3EPOgjo273rAHZ_kySog-1">
          <mxGeometry x="520" y="300" width="310" height="160" as="geometry" />
        </mxCell>
        <mxCell id="cmCbDiRk4xD9UXszLm4Y-11" value="Scripts:&amp;nbsp;" style="text;html=1;align=center;verticalAlign=middle;resizable=0;points=[];autosize=1;strokeColor=none;fillColor=none;fontSize=18;fontStyle=1" vertex="1" parent="cmCbDiRk4xD9UXszLm4Y-10">
          <mxGeometry x="20" y="50" width="90" height="40" as="geometry" />
        </mxCell>
        <mxCell id="cmCbDiRk4xD9UXszLm4Y-12" value="- train_model.py&lt;div&gt;- predict_price.py&lt;/div&gt;" style="text;html=1;align=left;verticalAlign=middle;resizable=0;points=[];autosize=1;strokeColor=none;fillColor=none;fontSize=18;fontStyle=1" vertex="1" parent="cmCbDiRk4xD9UXszLm4Y-10">
          <mxGeometry x="80" y="80" width="160" height="60" as="geometry" />
        </mxCell>
        <mxCell id="cmCbDiRk4xD9UXszLm4Y-13" value="" style="endArrow=classic;startArrow=classic;html=1;rounded=0;exitX=1;exitY=0.5;exitDx=0;exitDy=0;jumpSize=18;strokeWidth=3;" edge="1" parent="3EPOgjo273rAHZ_kySog-1" source="cmCbDiRk4xD9UXszLm4Y-0" target="cmCbDiRk4xD9UXszLm4Y-8">
          <mxGeometry width="50" height="50" relative="1" as="geometry">
            <mxPoint x="430" y="220" as="sourcePoint" />
            <mxPoint x="480" y="170" as="targetPoint" />
          </mxGeometry>
        </mxCell>
        <mxCell id="cmCbDiRk4xD9UXszLm4Y-14" value="" style="endArrow=classic;startArrow=classic;html=1;rounded=0;exitX=0.5;exitY=1;exitDx=0;exitDy=0;jumpSize=18;strokeWidth=3;entryX=0.5;entryY=0;entryDx=0;entryDy=0;" edge="1" parent="3EPOgjo273rAHZ_kySog-1" source="cmCbDiRk4xD9UXszLm4Y-0" target="cmCbDiRk4xD9UXszLm4Y-2">
          <mxGeometry width="50" height="50" relative="1" as="geometry">
            <mxPoint x="320" y="250" as="sourcePoint" />
            <mxPoint x="560" y="250" as="targetPoint" />
          </mxGeometry>
        </mxCell>
        <mxCell id="cmCbDiRk4xD9UXszLm4Y-15" value="" style="endArrow=classic;startArrow=classic;html=1;rounded=0;exitX=0.5;exitY=1;exitDx=0;exitDy=0;jumpSize=18;strokeWidth=3;entryX=0.5;entryY=0;entryDx=0;entryDy=0;" edge="1" parent="3EPOgjo273rAHZ_kySog-1" source="cmCbDiRk4xD9UXszLm4Y-2" target="cmCbDiRk4xD9UXszLm4Y-4">
          <mxGeometry width="50" height="50" relative="1" as="geometry">
            <mxPoint x="390" y="460" as="sourcePoint" />
            <mxPoint x="390" y="580" as="targetPoint" />
          </mxGeometry>
        </mxCell>
        <mxCell id="cmCbDiRk4xD9UXszLm4Y-16" value="" style="endArrow=classic;startArrow=classic;html=1;rounded=0;exitX=1;exitY=1;exitDx=0;exitDy=0;jumpSize=18;strokeWidth=3;entryX=0;entryY=0.5;entryDx=0;entryDy=0;" edge="1" parent="3EPOgjo273rAHZ_kySog-1" source="cmCbDiRk4xD9UXszLm4Y-2" target="cmCbDiRk4xD9UXszLm4Y-6">
          <mxGeometry width="50" height="50" relative="1" as="geometry">
            <mxPoint x="460" y="480" as="sourcePoint" />
            <mxPoint x="460" y="600" as="targetPoint" />
          </mxGeometry>
        </mxCell>
        <mxCell id="cmCbDiRk4xD9UXszLm4Y-17" value="" style="endArrow=classic;startArrow=classic;html=1;rounded=0;exitX=1;exitY=1;exitDx=0;exitDy=0;jumpSize=18;strokeWidth=3;" edge="1" parent="3EPOgjo273rAHZ_kySog-1" source="cmCbDiRk4xD9UXszLm4Y-0" target="cmCbDiRk4xD9UXszLm4Y-18">
          <mxGeometry width="50" height="50" relative="1" as="geometry">
            <mxPoint x="340" y="200" as="sourcePoint" />
            <mxPoint x="590" y="374" as="targetPoint" />
          </mxGeometry>
        </mxCell>
        <mxCell id="cmCbDiRk4xD9UXszLm4Y-18" value="Shared volume&lt;div&gt;(ML models)&lt;/div&gt;" style="shape=cylinder3;whiteSpace=wrap;html=1;boundedLbl=1;backgroundOutline=1;size=15;fontSize=16;fontStyle=1" vertex="1" parent="3EPOgjo273rAHZ_kySog-1">
          <mxGeometry x="340" y="230" width="140" height="100" as="geometry" />
        </mxCell>
        <mxCell id="cmCbDiRk4xD9UXszLm4Y-19" value="" style="endArrow=classic;startArrow=classic;html=1;rounded=0;exitX=1;exitY=0;exitDx=0;exitDy=90;jumpSize=18;strokeWidth=3;exitPerimeter=0;entryX=0;entryY=0.5;entryDx=0;entryDy=0;" edge="1" parent="3EPOgjo273rAHZ_kySog-1" source="cmCbDiRk4xD9UXszLm4Y-18" target="cmCbDiRk4xD9UXszLm4Y-10">
          <mxGeometry width="50" height="50" relative="1" as="geometry">
            <mxPoint x="370" y="400" as="sourcePoint" />
            <mxPoint x="442" y="460" as="targetPoint" />
          </mxGeometry>
        </mxCell>
      </root>
    </mxGraphModel>
  </diagram>
  <diagram name="Data-loader" id="o_2800NTts27wziiKpCa">
    <mxGraphModel dx="1126" dy="743" grid="1" gridSize="10" guides="1" tooltips="1" connect="1" arrows="1" fold="1" page="1" pageScale="1" pageWidth="850" pageHeight="1100" math="0" shadow="0">
      <root>
        <mxCell id="ukvu9UADnZxWEPt5N5TB-0" />
        <mxCell id="ukvu9UADnZxWEPt5N5TB-1" parent="ukvu9UADnZxWEPt5N5TB-0" />
        <mxCell id="Lph_0D2ldrnoInGHADHT-0" value="&lt;font style=&quot;font-size: 16px;&quot;&gt;&lt;b&gt;Class: retrieval_handler&lt;/b&gt;&lt;/font&gt;" style="swimlane;childLayout=stackLayout;horizontal=1;startSize=50;horizontalStack=0;rounded=1;fontSize=14;fontStyle=0;strokeWidth=2;resizeParent=0;resizeLast=1;shadow=0;dashed=0;align=center;arcSize=4;whiteSpace=wrap;html=1;" vertex="1" parent="ukvu9UADnZxWEPt5N5TB-1">
          <mxGeometry x="60" y="240" width="220" height="160" as="geometry" />
        </mxCell>
        <mxCell id="Lph_0D2ldrnoInGHADHT-1" value="&lt;font style=&quot;font-size: 17px;&quot;&gt;&lt;b&gt;Methods:&lt;/b&gt;&lt;/font&gt;&lt;div&gt;&lt;font style=&quot;font-size: 17px;&quot;&gt;&lt;b&gt;&lt;br&gt;&amp;nbsp;+ hist_update(...)&lt;/b&gt;&lt;/font&gt;&lt;div&gt;&lt;font style=&quot;font-size: 17px;&quot;&gt;&lt;b&gt;&amp;nbsp;+ db_update(...)&lt;/b&gt;&lt;/font&gt;&lt;/div&gt;&lt;/div&gt;" style="align=left;strokeColor=none;fillColor=none;spacingLeft=4;spacingRight=4;fontSize=12;verticalAlign=top;resizable=0;rotatable=0;part=1;html=1;whiteSpace=wrap;" vertex="1" parent="Lph_0D2ldrnoInGHADHT-0">
          <mxGeometry y="50" width="220" height="110" as="geometry" />
        </mxCell>
        <mxCell id="Lph_0D2ldrnoInGHADHT-4" value="Get historical data&amp;nbsp;&lt;div&gt;from Bionance (API)&lt;/div&gt;" style="ellipse;whiteSpace=wrap;html=1;fontSize=16;" vertex="1" parent="ukvu9UADnZxWEPt5N5TB-1">
          <mxGeometry x="480" y="310" width="210" height="80" as="geometry" />
        </mxCell>
        <mxCell id="Lph_0D2ldrnoInGHADHT-6" value="Input parameters:&lt;blockquote style=&quot;margin: 0 0 0 40px; border: none; padding: 0px;&quot;&gt;&lt;div&gt;- period start date&lt;/div&gt;&lt;div&gt;&lt;div&gt;- period end date&lt;/div&gt;&lt;/div&gt;&lt;div&gt;&lt;div&gt;- ticker (ex. BTCUSDT)&lt;/div&gt;&lt;/div&gt;&lt;div&gt;&lt;div&gt;- interval type (1w, 1d, 1h)&lt;/div&gt;&lt;/div&gt;&lt;/blockquote&gt;" style="shape=note;whiteSpace=wrap;html=1;backgroundOutline=1;darkOpacity=0.05;align=left;fontSize=14;" vertex="1" parent="ukvu9UADnZxWEPt5N5TB-1">
          <mxGeometry x="350" y="140" width="210" height="110" as="geometry" />
        </mxCell>
        <mxCell id="Lph_0D2ldrnoInGHADHT-7" value="Store the data in the &lt;b&gt;&lt;font style=&quot;font-size: 18px;&quot;&gt;crypto_coin_candle&lt;/font&gt;&amp;nbsp;&lt;/b&gt;&lt;div&gt;table&lt;/div&gt;" style="ellipse;whiteSpace=wrap;html=1;fontSize=16;" vertex="1" parent="ukvu9UADnZxWEPt5N5TB-1">
          <mxGeometry x="480" y="440" width="210" height="80" as="geometry" />
        </mxCell>
        <mxCell id="Lph_0D2ldrnoInGHADHT-8" value="update the&amp;nbsp;&lt;div&gt;&lt;b&gt;&lt;font style=&quot;font-size: 18px;&quot;&gt;historical_data&lt;/font&gt;&amp;nbsp;&lt;/b&gt;&lt;div&gt;table&lt;/div&gt;&lt;/div&gt;" style="ellipse;whiteSpace=wrap;html=1;fontSize=16;" vertex="1" parent="ukvu9UADnZxWEPt5N5TB-1">
          <mxGeometry x="480" y="572" width="210" height="80" as="geometry" />
        </mxCell>
        <mxCell id="Lph_0D2ldrnoInGHADHT-9" value="" style="endArrow=classic;html=1;rounded=0;exitX=0.5;exitY=1;exitDx=0;exitDy=0;entryX=0.5;entryY=0;entryDx=0;entryDy=0;strokeWidth=3;" edge="1" parent="ukvu9UADnZxWEPt5N5TB-1" target="Lph_0D2ldrnoInGHADHT-4">
          <mxGeometry width="50" height="50" relative="1" as="geometry">
            <mxPoint x="585" y="210" as="sourcePoint" />
            <mxPoint x="450" y="360" as="targetPoint" />
          </mxGeometry>
        </mxCell>
        <mxCell id="Lph_0D2ldrnoInGHADHT-11" value="" style="endArrow=classic;html=1;rounded=0;exitX=0.5;exitY=1;exitDx=0;exitDy=0;entryX=0.5;entryY=0;entryDx=0;entryDy=0;strokeWidth=3;" edge="1" parent="ukvu9UADnZxWEPt5N5TB-1" source="Lph_0D2ldrnoInGHADHT-4" target="Lph_0D2ldrnoInGHADHT-7">
          <mxGeometry width="50" height="50" relative="1" as="geometry">
            <mxPoint x="740" y="380" as="sourcePoint" />
            <mxPoint x="740" y="480" as="targetPoint" />
          </mxGeometry>
        </mxCell>
        <mxCell id="Lph_0D2ldrnoInGHADHT-12" value="" style="endArrow=classic;html=1;rounded=0;strokeWidth=3;" edge="1" parent="ukvu9UADnZxWEPt5N5TB-1" source="Lph_0D2ldrnoInGHADHT-7" target="Lph_0D2ldrnoInGHADHT-8">
          <mxGeometry width="50" height="50" relative="1" as="geometry">
            <mxPoint x="740" y="530" as="sourcePoint" />
            <mxPoint x="740" y="630" as="targetPoint" />
          </mxGeometry>
        </mxCell>
        <mxCell id="Lph_0D2ldrnoInGHADHT-13" value="&lt;u&gt;get_historical_data.py&lt;/u&gt;&lt;div&gt;implementation&lt;/div&gt;" style="rounded=1;whiteSpace=wrap;html=1;fontSize=19;fontStyle=1" vertex="1" parent="ukvu9UADnZxWEPt5N5TB-1">
          <mxGeometry x="350" y="60" width="400" height="60" as="geometry" />
        </mxCell>
        <mxCell id="_BSmPWIyiIlgjTqCWATF-0" value="" style="ellipse;whiteSpace=wrap;html=1;aspect=fixed;" vertex="1" parent="ukvu9UADnZxWEPt5N5TB-1">
          <mxGeometry x="570" y="180" width="30" height="30" as="geometry" />
        </mxCell>
        <mxCell id="_BSmPWIyiIlgjTqCWATF-1" value="" style="ellipse;whiteSpace=wrap;html=1;aspect=fixed;" vertex="1" parent="ukvu9UADnZxWEPt5N5TB-1">
          <mxGeometry x="575" y="185" width="20" height="20" as="geometry" />
        </mxCell>
        <mxCell id="6kskZnyYJhheEBPawogo-0" value="" style="ellipse;whiteSpace=wrap;html=1;aspect=fixed;fillStyle=solid;fillColor=#000000;" vertex="1" parent="ukvu9UADnZxWEPt5N5TB-1">
          <mxGeometry x="570" y="693" width="30" height="30" as="geometry" />
        </mxCell>
        <mxCell id="6kskZnyYJhheEBPawogo-1" value="" style="ellipse;whiteSpace=wrap;html=1;aspect=fixed;fillStyle=solid;" vertex="1" parent="ukvu9UADnZxWEPt5N5TB-1">
          <mxGeometry x="575" y="698" width="20" height="20" as="geometry" />
        </mxCell>
        <mxCell id="6kskZnyYJhheEBPawogo-5" value="" style="endArrow=classic;html=1;rounded=0;strokeWidth=3;" edge="1" parent="ukvu9UADnZxWEPt5N5TB-1" source="Lph_0D2ldrnoInGHADHT-8" target="6kskZnyYJhheEBPawogo-0">
          <mxGeometry width="50" height="50" relative="1" as="geometry">
            <mxPoint x="380" y="600" as="sourcePoint" />
            <mxPoint x="380" y="652" as="targetPoint" />
          </mxGeometry>
        </mxCell>
      </root>
    </mxGraphModel>
  </diagram>
  <diagram name="ML" id="s9-Y4WS-S0-9ySMufO0Z">
    <mxGraphModel dx="1072" dy="708" grid="1" gridSize="10" guides="1" tooltips="1" connect="1" arrows="1" fold="1" page="1" pageScale="1" pageWidth="850" pageHeight="1100" math="0" shadow="0">
      <root>
        <mxCell id="79xmuPE9GLtPfvTSh1yS-0" />
        <mxCell id="79xmuPE9GLtPfvTSh1yS-1" parent="79xmuPE9GLtPfvTSh1yS-0" />
        <mxCell id="1kEcL6gXghjxmptTa5Ty-2" value="" style="ellipse;whiteSpace=wrap;html=1;aspect=fixed;" vertex="1" parent="79xmuPE9GLtPfvTSh1yS-1">
          <mxGeometry x="570" y="237" width="30" height="30" as="geometry" />
        </mxCell>
        <mxCell id="79xmuPE9GLtPfvTSh1yS-5" value="" style="ellipse;whiteSpace=wrap;html=1;aspect=fixed;" vertex="1" parent="79xmuPE9GLtPfvTSh1yS-1">
          <mxGeometry x="575" y="242" width="20" height="20" as="geometry" />
        </mxCell>
        <mxCell id="79xmuPE9GLtPfvTSh1yS-7" value="Load:&lt;div&gt;- model and scaler&lt;/div&gt;" style="ellipse;whiteSpace=wrap;html=1;fontSize=16;" vertex="1" parent="79xmuPE9GLtPfvTSh1yS-1">
          <mxGeometry x="480" y="304" width="210" height="80" as="geometry" />
        </mxCell>
        <mxCell id="79xmuPE9GLtPfvTSh1yS-9" value="" style="endArrow=classic;html=1;rounded=0;strokeWidth=3;exitX=0.5;exitY=1;exitDx=0;exitDy=0;" edge="1" parent="79xmuPE9GLtPfvTSh1yS-1" source="1kEcL6gXghjxmptTa5Ty-2" target="79xmuPE9GLtPfvTSh1yS-7">
          <mxGeometry width="50" height="50" relative="1" as="geometry">
            <mxPoint x="585" y="280" as="sourcePoint" />
            <mxPoint x="585" y="310" as="targetPoint" />
          </mxGeometry>
        </mxCell>
        <mxCell id="79xmuPE9GLtPfvTSh1yS-11" value="" style="endArrow=classic;html=1;rounded=0;strokeWidth=3;" edge="1" parent="79xmuPE9GLtPfvTSh1yS-1" source="79xmuPE9GLtPfvTSh1yS-7" target="1kEcL6gXghjxmptTa5Ty-0">
          <mxGeometry width="50" height="50" relative="1" as="geometry">
            <mxPoint x="740" y="394" as="sourcePoint" />
            <mxPoint x="585" y="436" as="targetPoint" />
          </mxGeometry>
        </mxCell>
        <mxCell id="79xmuPE9GLtPfvTSh1yS-12" value="&lt;div&gt;&lt;u&gt;predict_price.py&lt;/u&gt;&lt;/div&gt;&lt;u&gt;&lt;div&gt;&lt;u style=&quot;background-color: transparent; color: light-dark(rgb(0, 0, 0), rgb(255, 255, 255));&quot;&gt;&lt;span style=&quot;font-weight: normal;&quot;&gt;&lt;font style=&quot;font-size: 16px;&quot;&gt;(Prediction)&lt;/font&gt;&lt;/span&gt;&lt;/u&gt;&lt;/div&gt;&lt;/u&gt;" style="rounded=1;whiteSpace=wrap;html=1;fontSize=19;fontStyle=1" vertex="1" parent="79xmuPE9GLtPfvTSh1yS-1">
          <mxGeometry x="500" y="160" width="170" height="70" as="geometry" />
        </mxCell>
        <mxCell id="1kEcL6gXghjxmptTa5Ty-0" value="fetch recent data&lt;div&gt;(last 60 points)&lt;/div&gt;" style="ellipse;whiteSpace=wrap;html=1;fontSize=16;" vertex="1" parent="79xmuPE9GLtPfvTSh1yS-1">
          <mxGeometry x="480" y="434" width="210" height="80" as="geometry" />
        </mxCell>
        <mxCell id="1kEcL6gXghjxmptTa5Ty-3" value="" style="ellipse;whiteSpace=wrap;html=1;aspect=fixed;fillStyle=solid;fillColor=#000000;" vertex="1" parent="79xmuPE9GLtPfvTSh1yS-1">
          <mxGeometry x="570" y="682" width="30" height="30" as="geometry" />
        </mxCell>
        <mxCell id="1kEcL6gXghjxmptTa5Ty-4" value="" style="ellipse;whiteSpace=wrap;html=1;aspect=fixed;fillStyle=solid;" vertex="1" parent="79xmuPE9GLtPfvTSh1yS-1">
          <mxGeometry x="575" y="687" width="20" height="20" as="geometry" />
        </mxCell>
        <mxCell id="1kEcL6gXghjxmptTa5Ty-5" value="" style="endArrow=classic;html=1;rounded=0;strokeWidth=3;" edge="1" parent="79xmuPE9GLtPfvTSh1yS-1" source="1kEcL6gXghjxmptTa5Ty-6" target="1kEcL6gXghjxmptTa5Ty-3">
          <mxGeometry width="50" height="50" relative="1" as="geometry">
            <mxPoint x="585" y="664" as="sourcePoint" />
            <mxPoint x="585" y="691" as="targetPoint" />
          </mxGeometry>
        </mxCell>
        <mxCell id="1kEcL6gXghjxmptTa5Ty-6" value="model.predict(...)&lt;div&gt;scaler.invers_transform(...)&lt;/div&gt;" style="ellipse;whiteSpace=wrap;html=1;fontSize=16;" vertex="1" parent="79xmuPE9GLtPfvTSh1yS-1">
          <mxGeometry x="465" y="561" width="240" height="80" as="geometry" />
        </mxCell>
        <mxCell id="1kEcL6gXghjxmptTa5Ty-7" value="" style="endArrow=classic;html=1;rounded=0;strokeWidth=3;" edge="1" parent="79xmuPE9GLtPfvTSh1yS-1" source="1kEcL6gXghjxmptTa5Ty-0" target="1kEcL6gXghjxmptTa5Ty-6">
          <mxGeometry width="50" height="50" relative="1" as="geometry">
            <mxPoint x="440" y="541" as="sourcePoint" />
            <mxPoint x="440" y="592" as="targetPoint" />
          </mxGeometry>
        </mxCell>
        <mxCell id="1kEcL6gXghjxmptTa5Ty-8" value="" style="ellipse;whiteSpace=wrap;html=1;aspect=fixed;" vertex="1" parent="79xmuPE9GLtPfvTSh1yS-1">
          <mxGeometry x="240" y="237" width="30" height="30" as="geometry" />
        </mxCell>
        <mxCell id="1kEcL6gXghjxmptTa5Ty-9" value="" style="ellipse;whiteSpace=wrap;html=1;aspect=fixed;" vertex="1" parent="79xmuPE9GLtPfvTSh1yS-1">
          <mxGeometry x="245" y="242" width="20" height="20" as="geometry" />
        </mxCell>
        <mxCell id="1kEcL6gXghjxmptTa5Ty-10" value="" style="endArrow=classic;html=1;rounded=0;strokeWidth=3;exitX=0.5;exitY=1;exitDx=0;exitDy=0;" edge="1" parent="79xmuPE9GLtPfvTSh1yS-1" source="1kEcL6gXghjxmptTa5Ty-8" target="1kEcL6gXghjxmptTa5Ty-12">
          <mxGeometry width="50" height="50" relative="1" as="geometry">
            <mxPoint x="255" y="280" as="sourcePoint" />
            <mxPoint x="255" y="310" as="targetPoint" />
          </mxGeometry>
        </mxCell>
        <mxCell id="1kEcL6gXghjxmptTa5Ty-11" value="&lt;div&gt;&lt;u&gt;train_model.py&lt;/u&gt;&lt;/div&gt;&lt;u&gt;&lt;div&gt;&lt;u style=&quot;background-color: transparent; color: light-dark(rgb(0, 0, 0), rgb(255, 255, 255));&quot;&gt;&lt;span style=&quot;font-weight: normal;&quot;&gt;&lt;font style=&quot;font-size: 16px;&quot;&gt;(Training)&lt;/font&gt;&lt;/span&gt;&lt;/u&gt;&lt;/div&gt;&lt;/u&gt;" style="rounded=1;whiteSpace=wrap;html=1;fontSize=19;fontStyle=1" vertex="1" parent="79xmuPE9GLtPfvTSh1yS-1">
          <mxGeometry x="170" y="160" width="170" height="70" as="geometry" />
        </mxCell>
        <mxCell id="1kEcL6gXghjxmptTa5Ty-12" value="Get historical data&amp;nbsp;&lt;div&gt;(API)&lt;/div&gt;" style="ellipse;whiteSpace=wrap;html=1;fontSize=16;" vertex="1" parent="79xmuPE9GLtPfvTSh1yS-1">
          <mxGeometry x="150" y="310" width="210" height="80" as="geometry" />
        </mxCell>
        <mxCell id="1kEcL6gXghjxmptTa5Ty-13" value="Prepare data,&amp;nbsp;&lt;div&gt;reshape for LSTM,&amp;nbsp;&lt;/div&gt;&lt;div&gt;training and test data&lt;/div&gt;" style="ellipse;whiteSpace=wrap;html=1;fontSize=16;" vertex="1" parent="79xmuPE9GLtPfvTSh1yS-1">
          <mxGeometry x="150" y="440" width="210" height="90" as="geometry" />
        </mxCell>
        <mxCell id="1kEcL6gXghjxmptTa5Ty-14" value="" style="endArrow=classic;html=1;rounded=0;strokeWidth=3;" edge="1" parent="79xmuPE9GLtPfvTSh1yS-1" source="1kEcL6gXghjxmptTa5Ty-12" target="1kEcL6gXghjxmptTa5Ty-13">
          <mxGeometry width="50" height="50" relative="1" as="geometry">
            <mxPoint x="420" y="410" as="sourcePoint" />
            <mxPoint x="420" y="460" as="targetPoint" />
          </mxGeometry>
        </mxCell>
        <mxCell id="1kEcL6gXghjxmptTa5Ty-15" value="Build the model&lt;div&gt;LSTM&lt;/div&gt;" style="ellipse;whiteSpace=wrap;html=1;fontSize=16;" vertex="1" parent="79xmuPE9GLtPfvTSh1yS-1">
          <mxGeometry x="150" y="572" width="210" height="80" as="geometry" />
        </mxCell>
        <mxCell id="1kEcL6gXghjxmptTa5Ty-16" value="model.fit(...)" style="ellipse;whiteSpace=wrap;html=1;fontSize=16;" vertex="1" parent="79xmuPE9GLtPfvTSh1yS-1">
          <mxGeometry x="145" y="698" width="220" height="80" as="geometry" />
        </mxCell>
        <mxCell id="1kEcL6gXghjxmptTa5Ty-17" value="" style="endArrow=classic;html=1;rounded=0;strokeWidth=3;" edge="1" parent="79xmuPE9GLtPfvTSh1yS-1" source="1kEcL6gXghjxmptTa5Ty-13" target="1kEcL6gXghjxmptTa5Ty-15">
          <mxGeometry width="50" height="50" relative="1" as="geometry">
            <mxPoint x="359.44" y="540" as="sourcePoint" />
            <mxPoint x="359.44" y="592" as="targetPoint" />
          </mxGeometry>
        </mxCell>
        <mxCell id="1kEcL6gXghjxmptTa5Ty-18" value="" style="endArrow=classic;html=1;rounded=0;strokeWidth=3;" edge="1" parent="79xmuPE9GLtPfvTSh1yS-1" source="1kEcL6gXghjxmptTa5Ty-15" target="1kEcL6gXghjxmptTa5Ty-16">
          <mxGeometry width="50" height="50" relative="1" as="geometry">
            <mxPoint x="425" y="572" as="sourcePoint" />
            <mxPoint x="425" y="624" as="targetPoint" />
          </mxGeometry>
        </mxCell>
        <mxCell id="1kEcL6gXghjxmptTa5Ty-21" value="" style="endArrow=classic;html=1;rounded=0;strokeWidth=3;" edge="1" parent="79xmuPE9GLtPfvTSh1yS-1" source="1kEcL6gXghjxmptTa5Ty-16" target="1kEcL6gXghjxmptTa5Ty-22">
          <mxGeometry width="50" height="50" relative="1" as="geometry">
            <mxPoint x="400" y="779" as="sourcePoint" />
            <mxPoint x="253.17509332979307" y="830.0007202097556" as="targetPoint" />
          </mxGeometry>
        </mxCell>
        <mxCell id="1kEcL6gXghjxmptTa5Ty-22" value="Save:&lt;div&gt;- model and scaler&lt;/div&gt;" style="ellipse;whiteSpace=wrap;html=1;fontSize=16;" vertex="1" parent="79xmuPE9GLtPfvTSh1yS-1">
          <mxGeometry x="145" y="830" width="220" height="80" as="geometry" />
        </mxCell>
        <mxCell id="1kEcL6gXghjxmptTa5Ty-23" value="" style="ellipse;whiteSpace=wrap;html=1;aspect=fixed;fillStyle=solid;fillColor=#000000;" vertex="1" parent="79xmuPE9GLtPfvTSh1yS-1">
          <mxGeometry x="240" y="951" width="30" height="30" as="geometry" />
        </mxCell>
        <mxCell id="1kEcL6gXghjxmptTa5Ty-24" value="" style="ellipse;whiteSpace=wrap;html=1;aspect=fixed;fillStyle=solid;" vertex="1" parent="79xmuPE9GLtPfvTSh1yS-1">
          <mxGeometry x="245" y="956" width="20" height="20" as="geometry" />
        </mxCell>
        <mxCell id="1kEcL6gXghjxmptTa5Ty-25" value="" style="endArrow=classic;html=1;rounded=0;strokeWidth=3;" edge="1" parent="79xmuPE9GLtPfvTSh1yS-1" source="1kEcL6gXghjxmptTa5Ty-22" target="1kEcL6gXghjxmptTa5Ty-23">
          <mxGeometry width="50" height="50" relative="1" as="geometry">
            <mxPoint x="450" y="970" as="sourcePoint" />
            <mxPoint x="255" y="950" as="targetPoint" />
          </mxGeometry>
        </mxCell>
      </root>
    </mxGraphModel>
  </diagram>
</mxfile>
